<svg width="27" height="22" xmlns="http://www.w3.org/2000/svg"><defs><clipPath id="a"><path d="M1440 0v9120H0V0h1440Z"/></clipPath><clipPath id="b"><path d="m16.328 11.662 8.665 8.647c-.546.44-1.388.66-2.525.66H4.267c-1.168 0-2.032-.221-2.59-.663l8.651-8.627.511.494c.8.788 1.632 1.182 2.495 1.182.855 0 1.683-.394 2.485-1.182l.509-.511ZM.508 1.954l8.384 8.297-8.516 8.496C.126 18.293 0 17.612 0 16.704V4.254c0-1.034.17-1.8.508-2.3Zm25.652.007c.337.497.505 1.261.505 2.293v12.45c0 .905-.127 1.585-.381 2.04l-8.503-8.493ZM22.398 0c1.059 0 1.837.173 2.337.518L14.87 10.42c-.276.275-.534.48-.775.612a1.55 1.55 0 0 1-1.515 0 3.662 3.662 0 0 1-.783-.612L1.927.507C2.404.17 3.16 0 4.198 0Z"/></clipPath></defs><g clip-path="url(#a)" transform="translate(-997 -7481)"><g clip-path="url(#b)" transform="translate(997.218 7481.424)"><path fill="#36BED4" d="M0 0h26.665v20.969H0V0z"/></g></g></svg>