<svg width="27" height="27" xmlns="http://www.w3.org/2000/svg"><defs><clipPath id="a"><path d="M1440 0v9120H0V0h1440Z"/></clipPath><clipPath id="b"><path d="M12.927 0c1.782 0 3.455.336 5.017 1.007a13.033 13.033 0 0 1 4.126 2.795 13.263 13.263 0 0 1 2.796 4.126c.675 1.559 1.013 3.225 1.013 5 0 1.773-.338 3.442-1.013 5.004a13.243 13.243 0 0 1-2.796 4.132 13.033 13.033 0 0 1-4.126 2.796c-1.562.671-3.23 1.007-5.005 1.007-1.774 0-3.442-.336-5.004-1.007a13.033 13.033 0 0 1-4.126-2.796 13.243 13.243 0 0 1-2.796-4.132C.338 16.37 0 14.702 0 12.927c0-1.774.338-3.44 1.013-4.999A13.263 13.263 0 0 1 3.81 3.802a13.052 13.052 0 0 1 4.12-2.795C9.486.336 11.152 0 12.926 0Zm-.33 16.309c-.496 0-.913.144-1.25.433-.338.289-.507.67-.507 1.141 0 .472.17.85.513 1.136.341.284.756.427 1.245.427.496 0 .913-.143 1.25-.427.339-.285.507-.664.507-1.136 0-.472-.166-.852-.5-1.141-.334-.289-.753-.433-1.257-.433Zm.428-10.071c-1.099 0-2.024.205-2.777.616-.753.411-1.255.93-1.508 1.557a2.54 2.54 0 0 0-.116.366 1.716 1.716 0 0 0-.042.39c0 .35.13.645.39.885s.619.36 1.074.36c.391 0 .682-.079.873-.237.191-.16.373-.328.543-.507.204-.252.415-.448.635-.586.22-.138.468-.207.745-.207.366 0 .659.097.879.292a.98.98 0 0 1 .33.77c0 .317-.133.6-.397.848-.265.248-.65.547-1.154.897a5.547 5.547 0 0 0-1.105.983c-.28.338-.42.746-.42 1.227v.097c0 .863.544 1.294 1.635 1.294.407 0 .747-.093 1.02-.28.272-.188.432-.42.481-.696a.91.91 0 0 0 .025-.16c.065-.284.22-.538.464-.762.244-.224.545-.45.903-.677.66-.416 1.158-.837 1.495-1.264.338-.427.507-.99.507-1.69 0-.717-.202-1.337-.604-1.862-.403-.525-.942-.932-1.618-1.22-.675-.29-1.428-.434-2.258-.434Z"/></clipPath></defs><g clip-path="url(#a)" transform="translate(-417 -7479)"><g clip-path="url(#b)" transform="translate(417.496 7479.26)"><path fill="#36BED4" d="M0 0h25.879v25.867H0V0z"/></g></g></svg>